<svg xmlns="http://www.w3.org/2000/svg" viewBox="0 0 2560.3 1149.93"><defs><style>.cls-1{fill:#f91;}.cls-2{fill:#feda44;}</style></defs><title>highfield_hackArtboard 1</title><g id="Layer_1" data-name="Layer 1"><path d="M1892.73,928.8l-24.51,33.29-3.4-86.69.33.17,78.57,41.8-.56.09-33.6,5.32c2.91,2.58,26.78,23.44,50.87,35.08,30,14.53,54.63,13.83,54.88,13.82,1.09,0,2.49,0,4.1,0,19-.07,76.94-.26,110.74-62.53,13.1-24.14,21.08-58.31,24.4-104.45,2-27.66,2.41-59.88,1.24-98.59h-73.31c-12.63-.11-22.88-9.55-22.88-21.15s10.25-21,22.88-21.14H2154q-1-19.47-2.47-40.92a97.74,97.74,0,0,1-39.24-24.41,100.74,100.74,0,0,1,0-141.08,97.49,97.49,0,0,1,139.21,0,99.83,99.83,0,0,1,28.82,70.54c0,27-9.79,52.08-27.56,70.54a94.37,94.37,0,0,1-40.56,24.77q-1.44,21.28-2.44,40.56h71.45c.49,0,1,0,1.47.05,12,.7,21.61,9.89,21.61,21.1,0,10.3-8.07,18.89-18.71,20.77a26.21,26.21,0,0,1-4.37.38H2208c-1.17,38.71-.74,70.93,1.24,98.59,3.32,46.14,11.3,80.31,24.4,104.45,33.8,62.27,91.7,62.46,110.73,62.53,1.62,0,3,0,4.11,0,.25,0,24.84.71,54.88-13.82,24.09-11.65,48-32.5,50.87-35.08l-34.17-5.41.5-.27L2499,875.4v.35l-3.38,86.34-.37-.49-24.15-32.81c-54.69,92.22-140.18,124.62-202.3,135.56-42.89,7.56-71.23,27.43-86.63,60.74l-.06.12h-.38l-.06-.12c-15.4-33.31-43.73-53.18-86.63-60.74C2032.91,1053.41,1947.42,1021,1892.73,928.8Zm602.5,32.1,3.32-84.82-77.24,41.09,33.83,5.36-.29.26c-.26.23-25.63,23-51.26,35.41-30.15,14.58-54.85,13.87-55.09,13.87-1.09,0-2.49-.05-4.1-.05-10.21,0-29.21-.1-50.27-8-25.89-9.68-46.35-28.1-60.83-54.78-13.13-24.19-21.13-58.41-24.45-104.6-2-27.66-2.41-59.9-1.24-98.61v-.38h73.63c12.5,0,22.66-9.32,22.66-20.77s-10.16-20.76-22.66-20.76h-71.89c0-.13,0-.26,0-.39q1-19.24,2.43-40.42l0-.42.43-.14c40.1-12.35,67.67-49.06,67.67-94.89,0-54.8-44-99.39-98-99.39s-98,44.59-98,99.39c0,44,28.41,81.48,67.61,94.48l.43.15c0,.15,0,.3,0,.46q1.44,21.39,2.45,40.78c0,.13,0,.26,0,.39h-71.78c-12.5,0-22.67,9.31-22.67,20.76s10.17,20.77,22.67,20.77l.55,0h73v.38c1.17,38.71.74,70.95-1.24,98.61-3.32,46.19-11.32,80.41-24.45,104.6-14.48,26.68-34.94,45.1-60.83,54.78-21.06,7.86-40.06,7.92-50.27,8-1.61,0-3,0-4.09.05-.25,0-24.95.71-55.1-13.87-25.63-12.39-51-35.18-51.26-35.41l-.29-.26,33.83-5.36-77.24-41.09,3.32,84.82,24.18-32.85.16.28c54.6,92.29,140.09,124.7,202.18,135.64,42.91,7.56,71.31,27.41,86.8,60.67,15.49-33.26,43.89-53.11,86.8-60.67,62.09-10.94,147.57-43.35,202.18-135.64l.16-.28Z"/><path d="M2498.55,876.08l-3.32,84.82-24.18-32.85-.16.28c-54.61,92.29-140.09,124.7-202.18,135.64-42.91,7.56-71.31,27.41-86.8,60.67-15.49-33.26-43.89-53.11-86.8-60.67-62.09-10.94-147.58-43.35-202.18-135.64l-.16-.28-24.18,32.85-3.32-84.82,77.24,41.09-33.83,5.36.29.26c.26.23,25.63,23,51.26,35.41,30.15,14.58,54.85,13.87,55.1,13.87,1.08,0,2.48-.05,4.09-.05,10.21,0,29.21-.1,50.27-8,25.89-9.68,46.35-28.1,60.83-54.78,13.13-24.19,21.13-58.41,24.45-104.6,2-27.66,2.41-59.9,1.24-98.61v-.38h-73l-.55,0c-12.5,0-22.67-9.32-22.67-20.77s10.17-20.76,22.67-20.76h71.78c0-.13,0-.26,0-.39q-1-19.41-2.45-40.78c0-.16,0-.31,0-.46l-.43-.15c-39.2-13-67.61-50.44-67.61-94.48,0-54.8,44-99.39,98-99.39s98,44.59,98,99.39c0,45.83-27.57,82.54-67.67,94.89l-.43.14,0,.42q-1.43,21.2-2.43,40.42c0,.13,0,.26,0,.39h71.89c12.5,0,22.66,9.31,22.66,20.76s-10.16,20.77-22.66,20.77h-73.63v.38c-1.17,38.71-.74,70.95,1.24,98.61,3.32,46.19,11.32,80.41,24.45,104.6,14.48,26.68,34.94,45.1,60.83,54.78,21.06,7.86,40.06,7.92,50.27,8,1.61,0,3,0,4.1.05.24,0,24.94.71,55.09-13.87,25.63-12.39,51-35.18,51.26-35.41l.29-.26-33.83-5.36ZM2227.21,527.9c0-25.31-20.31-45.89-45.29-45.89s-45.28,20.58-45.28,45.89,20.32,45.89,45.28,45.89S2227.21,553.21,2227.21,527.9Z"/><path d="M2181.92,482c25,0,45.29,20.58,45.29,45.89s-20.31,45.89-45.29,45.89-45.28-20.58-45.28-45.89S2157,482,2181.92,482Zm44.87,45.89c0-25.1-20.12-45.51-44.87-45.51s-44.86,20.41-44.86,45.51,20.13,45.51,44.86,45.51S2226.79,553,2226.79,527.9Z"/><path d="M77.73,928.8,53.22,962.09l-3.4-86.69.33.17,78.57,41.8-.56.09-33.6,5.32c2.91,2.58,26.78,23.44,50.87,35.08,30,14.53,54.63,13.83,54.88,13.82,1.09,0,2.49,0,4.1,0,19-.07,76.94-.26,110.74-62.53,13.1-24.14,21.08-58.31,24.4-104.45,2-27.66,2.41-59.88,1.24-98.59H267.48c-12.63-.11-22.88-9.55-22.88-21.15s10.25-21,22.88-21.14H339q-1-19.47-2.47-40.92a97.74,97.74,0,0,1-39.24-24.41,100.74,100.74,0,0,1,0-141.08,97.49,97.49,0,0,1,139.21,0,99.83,99.83,0,0,1,28.82,70.54c0,27-9.79,52.08-27.56,70.54a94.37,94.37,0,0,1-40.56,24.77q-1.44,21.28-2.44,40.56h71.45c.49,0,1,0,1.47.05,12,.7,21.61,9.89,21.61,21.1,0,10.3-8.07,18.89-18.71,20.77a26.21,26.21,0,0,1-4.37.38H393c-1.17,38.71-.74,70.93,1.24,98.59,3.32,46.14,11.3,80.31,24.4,104.45,33.8,62.27,91.7,62.46,110.73,62.53,1.62,0,3,0,4.11,0,.25,0,24.84.71,54.88-13.82,24.09-11.65,48-32.5,50.87-35.08l-34.17-5.41.5-.27L684,875.4v.35l-3.38,86.34-.37-.49-24.15-32.81c-54.69,92.22-140.18,124.62-202.3,135.56-42.89,7.56-71.23,27.43-86.63,60.74l-.06.12h-.38l-.06-.12c-15.4-33.31-43.73-53.18-86.63-60.74C217.91,1053.41,132.42,1021,77.73,928.8Zm602.5,32.1,3.32-84.82-77.24,41.09,33.83,5.36-.29.26c-.26.23-25.63,23-51.26,35.41-30.15,14.58-54.85,13.87-55.09,13.87-1.09,0-2.49-.05-4.1-.05-10.21,0-29.21-.1-50.27-8-25.89-9.68-46.35-28.1-60.83-54.78-13.13-24.19-21.13-58.41-24.45-104.6-2-27.66-2.41-59.9-1.24-98.61v-.38h73.63c12.5,0,22.66-9.32,22.66-20.77s-10.16-20.76-22.66-20.76H394.35c0-.13,0-.26,0-.39q1-19.24,2.43-40.42l0-.42.43-.14c40.1-12.35,67.67-49.06,67.67-94.89,0-54.8-44-99.39-98-99.39s-98,44.59-98,99.39c0,44,28.41,81.48,67.61,94.48l.43.15c0,.15,0,.3,0,.46q1.44,21.39,2.45,40.78c0,.13,0,.26,0,.39H267.69c-12.5,0-22.67,9.31-22.67,20.76s10.17,20.77,22.67,20.77l.55,0h73v.38c1.17,38.71.74,70.95-1.24,98.61-3.32,46.19-11.32,80.41-24.45,104.6C301,936,280.58,954.38,254.69,964.06c-21.06,7.86-40.06,7.92-50.27,8-1.61,0-3,0-4.09.05-.25,0-25,.71-55.1-13.87C119.6,945.81,94.23,923,94,922.79l-.29-.26,33.83-5.36L50.27,876.08l3.32,84.82,24.18-32.85.16.28C132.53,1020.62,218,1053,280.11,1064c42.91,7.56,71.31,27.41,86.8,60.67,15.49-33.26,43.89-53.11,86.8-60.67,62.09-10.94,147.57-43.35,202.18-135.64l.16-.28Z"/><path d="M683.55,876.08l-3.32,84.82-24.18-32.85-.16.28C601.28,1020.62,515.8,1053,453.71,1064c-42.91,7.56-71.31,27.41-86.8,60.67-15.49-33.26-43.89-53.11-86.8-60.67C218,1053,132.53,1020.62,77.93,928.33l-.16-.28L53.59,960.9l-3.32-84.82,77.24,41.09-33.83,5.36.29.26c.26.23,25.63,23,51.26,35.41,30.15,14.58,54.85,13.87,55.1,13.87,1.08,0,2.48-.05,4.09-.05,10.21,0,29.21-.1,50.27-8,25.89-9.68,46.35-28.1,60.83-54.78,13.13-24.19,21.13-58.41,24.45-104.6,2-27.66,2.41-59.9,1.24-98.61v-.38h-73l-.55,0c-12.5,0-22.67-9.32-22.67-20.77s10.17-20.76,22.67-20.76h71.78c0-.13,0-.26,0-.39q-1-19.41-2.45-40.78c0-.16,0-.31,0-.46l-.43-.15c-39.2-13-67.61-50.44-67.61-94.48,0-54.8,44-99.39,98-99.39s98,44.59,98,99.39c0,45.83-27.57,82.54-67.67,94.89l-.43.14,0,.42q-1.43,21.2-2.43,40.42c0,.13,0,.26,0,.39h71.89c12.5,0,22.66,9.31,22.66,20.76s-10.16,20.77-22.66,20.77H392.61v.38c-1.17,38.71-.74,70.95,1.24,98.61,3.32,46.19,11.32,80.41,24.45,104.6,14.48,26.68,34.94,45.1,60.83,54.78,21.06,7.86,40.06,7.92,50.27,8,1.61,0,3,0,4.1.05.24,0,24.94.71,55.09-13.87,25.63-12.39,51-35.18,51.26-35.41l.29-.26-33.83-5.36ZM412.21,527.9c0-25.31-20.31-45.89-45.29-45.89s-45.28,20.58-45.28,45.89,20.32,45.89,45.28,45.89S412.21,553.21,412.21,527.9Z"/><path d="M366.92,482c25,0,45.29,20.58,45.29,45.89s-20.31,45.89-45.29,45.89-45.28-20.58-45.28-45.89S342,482,366.92,482Zm44.87,45.89c0-25.1-20.12-45.51-44.87-45.51s-44.86,20.41-44.86,45.51,20.13,45.51,44.86,45.51S411.79,553,411.79,527.9Z"/><path d="M753.39,430.87H855.76V851.69H753.39V692.88H625V851.69H522.58V430.87H625V596H753.39Z"/><path d="M1161.68,851.69l-17.56-51H1004.18l-18.17,51H877.57L1029,430.87h96.92l143.57,420.82ZM1039.31,703.77h72.09l-35.13-102Z"/><path d="M1492.35,855a242.15,242.15,0,0,1-85.23-15.48,218.64,218.64,0,0,1-74.77-47q-32-30.94-48.92-69.79a208.7,208.7,0,0,1,0-164.68,210.73,210.73,0,0,1,48.92-69.21,221.65,221.65,0,0,1,75.08-47.3,239.92,239.92,0,0,1,85.23-15.77,237.5,237.5,0,0,1,84.92,15.77,222.61,222.61,0,0,1,74.77,47.3l-73.23,69.5A118.58,118.58,0,0,0,1538.5,533a131.59,131.59,0,0,0-46.15-8.47A129.07,129.07,0,0,0,1446.5,533a119,119,0,0,0-40.31,25.4,121.49,121.49,0,0,0-26.46,38,109.31,109.31,0,0,0-9.23,44.38,107.17,107.17,0,0,0,9.23,44.09,122.4,122.4,0,0,0,26.46,37.67,118.9,118.9,0,0,0,40.31,25.41,129.06,129.06,0,0,0,45.85,8.46,131.58,131.58,0,0,0,46.15-8.46,118.45,118.45,0,0,0,40.62-25.41l73.23,70.08a219.48,219.48,0,0,1-74.46,47A241.41,241.41,0,0,1,1492.35,855Z"/><path d="M2072.79,430.3l-228.39,211,228.39,210.41H1925L1782,719.25V851.69H1679.63V430.3H1782v133L1927,430Z"/><path d="M420.43,58.13h77.39V376.24H420.43v-120H323.34V376.24H246V58.13h77.39V183h97.09Z"/><path d="M614.14,376.24h-77.4V57.69h77.4Z"/><path d="M933.32,198.12V376.24H855.47v-7.8a148.26,148.26,0,0,1-26.33,6.29,187.4,187.4,0,0,1-26.79,1.95A179.54,179.54,0,0,1,738.7,365a165.13,165.13,0,0,1-55.87-35.11Q658.1,306.47,646,277.21a155.25,155.25,0,0,1-12.13-60A156.9,156.9,0,0,1,646,156.94q12.13-29.46,36.87-52.87A164.83,164.83,0,0,1,738.7,69,179,179,0,0,1,866,69a164.92,164.92,0,0,1,55.87,35.11l-55,52a88.28,88.28,0,0,0-30.22-18.86,97.08,97.08,0,0,0-68.7,0,88.19,88.19,0,0,0-30.22,18.86,85.38,85.38,0,0,0-20.15,28.6,80.33,80.33,0,0,0,0,65,85.41,85.41,0,0,0,20.15,28.61,89,89,0,0,0,26.79,17.55,95,95,0,0,0,30.68,7.37,100.22,100.22,0,0,0,31.37-2.82,89,89,0,0,0,28.85-13v-16H788.15V198.12Z"/><path d="M1136.64,58.13H1214V376.24h-77.39v-120h-97.08V376.24H962.17V58.13h77.39V183h97.08Z"/><path d="M1454.84,131.37H1331.33a1,1,0,0,0-1,1v46.13a1,1,0,0,0,1,1h97.41a1,1,0,0,1,1,1v71.28a1,1,0,0,1-1,1h-97.41a1,1,0,0,0-1,1V375.26a1,1,0,0,1-1,1h-75.43a1,1,0,0,1-1-1V59.11a1,1,0,0,1,1-1h200.9a1,1,0,0,1,1,1v71.28A1,1,0,0,1,1454.84,131.37Z"/><path d="M1565.27,376.24h-77.39V57.69h77.39Z"/><path d="M1821.72,131.37h-138.3v48.11h112.19v73.24H1683.42V303h138.3v73.24H1606V58.56l215.7-.43Z"/><path d="M2061.68,376.24H1861.56V57.69H1939V303h122.73Z"/><path d="M2160.13,56.83a172.27,172.27,0,0,1,63,15.16,174.27,174.27,0,0,1,51.29,35.11,163.12,163.12,0,0,1,34.34,50.28,149.9,149.9,0,0,1,12.6,61.11,146.56,146.56,0,0,1-12.37,60,156.67,156.67,0,0,1-34.11,49.19,169.23,169.23,0,0,1-51.06,34,180.57,180.57,0,0,1-63.66,14.51h-77.39V56.39h77.39Zm0,245.74a101.12,101.12,0,0,0,33.2-8.89,94.07,94.07,0,0,0,26.56-18.2,81.31,81.31,0,0,0,17.63-25.79,77.24,77.24,0,0,0,6.42-31.2,83,83,0,0,0-6.42-32.29,88,88,0,0,0-17.85-27.31,96.86,96.86,0,0,0-26.57-19.5,93,93,0,0,0-33-9.32Z"/><path class="cls-1" d="M1901.73,918.8l-24.51,33.29-3.4-86.69.33.17,78.57,41.8-.56.09-33.6,5.32c2.91,2.58,26.78,23.44,50.87,35.08,30,14.53,54.63,13.83,54.88,13.82,1.09,0,2.49,0,4.1,0,19-.07,76.94-.26,110.74-62.53,13.1-24.14,21.08-58.31,24.4-104.45,2-27.66,2.41-59.88,1.24-98.59h-73.31c-12.63-.11-22.88-9.55-22.88-21.15s10.25-21,22.88-21.14H2163q-1-19.47-2.47-40.92a97.74,97.74,0,0,1-39.24-24.41,100.74,100.74,0,0,1,0-141.08,97.49,97.49,0,0,1,139.21,0,99.83,99.83,0,0,1,28.82,70.54c0,27-9.79,52.08-27.56,70.54a94.37,94.37,0,0,1-40.56,24.77q-1.44,21.28-2.44,40.56h71.45c.49,0,1,0,1.47.05,12,.7,21.61,9.89,21.61,21.1,0,10.3-8.07,18.89-18.71,20.77a26.21,26.21,0,0,1-4.37.38H2217c-1.17,38.71-.74,70.93,1.24,98.59,3.32,46.14,11.3,80.31,24.4,104.45,33.8,62.27,91.7,62.46,110.73,62.53,1.62,0,3,0,4.11,0,.25,0,24.84.71,54.88-13.82,24.09-11.65,48-32.5,50.87-35.08l-34.17-5.41.5-.27L2508,865.4v.35l-3.38,86.34-.37-.49-24.15-32.81c-54.69,92.22-140.18,124.62-202.3,135.56-42.89,7.56-71.23,27.43-86.63,60.74l-.06.12h-.38l-.06-.12c-15.4-33.31-43.73-53.18-86.63-60.74C2041.91,1043.41,1956.42,1011,1901.73,918.8Zm602.5,32.1,3.32-84.82-77.24,41.09,33.83,5.36-.29.26c-.26.23-25.63,23-51.26,35.41-30.15,14.58-54.85,13.87-55.09,13.87-1.09,0-2.49-.05-4.1-.05-10.21,0-29.21-.1-50.27-8-25.89-9.68-46.35-28.1-60.83-54.78-13.13-24.19-21.13-58.41-24.45-104.6-2-27.66-2.41-59.9-1.24-98.61v-.38h73.63c12.5,0,22.66-9.32,22.66-20.77s-10.16-20.76-22.66-20.76h-71.89c0-.13,0-.26,0-.39q1-19.24,2.43-40.42l0-.42.43-.14c40.1-12.35,67.67-49.06,67.67-94.89,0-54.8-44-99.39-98-99.39s-98,44.59-98,99.39c0,44,28.41,81.48,67.61,94.48l.43.15c0,.15,0,.3,0,.46q1.44,21.39,2.45,40.78c0,.13,0,.26,0,.39h-71.78c-12.5,0-22.67,9.31-22.67,20.76s10.17,20.77,22.67,20.77l.55,0h73v.38c1.17,38.71.74,70.95-1.24,98.61-3.32,46.19-11.32,80.41-24.45,104.6-14.48,26.68-34.94,45.1-60.83,54.78-21.06,7.86-40.06,7.92-50.27,8-1.61,0-3,0-4.09.05-.25,0-24.95.71-55.1-13.87-25.63-12.39-51-35.18-51.26-35.41l-.29-.26,33.83-5.36-77.24-41.09,3.32,84.82,24.18-32.85.16.28c54.6,92.29,140.09,124.7,202.18,135.64,42.91,7.56,71.31,27.41,86.8,60.67,15.49-33.26,43.89-53.11,86.8-60.67,62.09-10.94,147.57-43.35,202.18-135.64l.16-.28Z"/><path class="cls-1" d="M2507.55,866.08l-3.32,84.82-24.18-32.85-.16.28c-54.61,92.29-140.09,124.7-202.18,135.64-42.91,7.56-71.31,27.41-86.8,60.67-15.49-33.26-43.89-53.11-86.8-60.67-62.09-10.94-147.58-43.35-202.18-135.64l-.16-.28-24.18,32.85-3.32-84.82,77.24,41.09-33.83,5.36.29.26c.26.23,25.63,23,51.26,35.41,30.15,14.58,54.85,13.87,55.1,13.87,1.08,0,2.48-.05,4.09-.05,10.21,0,29.21-.1,50.27-8,25.89-9.68,46.35-28.1,60.83-54.78,13.13-24.19,21.13-58.41,24.45-104.6,2-27.66,2.41-59.9,1.24-98.61v-.38h-73l-.55,0c-12.5,0-22.67-9.32-22.67-20.77s10.17-20.76,22.67-20.76h71.78c0-.13,0-.26,0-.39q-1-19.41-2.45-40.78c0-.16,0-.31,0-.46l-.43-.15c-39.2-13-67.61-50.44-67.61-94.48,0-54.8,44-99.39,98-99.39s98,44.59,98,99.39c0,45.83-27.57,82.54-67.67,94.89l-.43.14,0,.42q-1.43,21.2-2.43,40.42c0,.13,0,.26,0,.39h71.89c12.5,0,22.66,9.31,22.66,20.76s-10.16,20.77-22.66,20.77h-73.63v.38c-1.17,38.71-.74,70.95,1.24,98.61,3.32,46.19,11.32,80.41,24.45,104.6,14.48,26.68,34.94,45.1,60.83,54.78,21.06,7.86,40.06,7.92,50.27,8,1.61,0,3,0,4.1.05.24,0,24.94.71,55.09-13.87,25.63-12.39,51-35.18,51.26-35.41l.29-.26-33.83-5.36ZM2236.21,517.9c0-25.31-20.31-45.89-45.29-45.89s-45.28,20.58-45.28,45.89,20.32,45.89,45.28,45.89S2236.21,543.21,2236.21,517.9Z"/><path class="cls-1" d="M2190.92,472c25,0,45.29,20.58,45.29,45.89s-20.31,45.89-45.29,45.89-45.28-20.58-45.28-45.89S2166,472,2190.92,472Zm44.87,45.89c0-25.1-20.12-45.51-44.87-45.51s-44.86,20.41-44.86,45.51,20.13,45.51,44.86,45.51S2235.79,543,2235.79,517.9Z"/><path class="cls-1" d="M86.73,918.8,62.22,952.09l-3.4-86.69.33.17,78.57,41.8-.56.09-33.6,5.32c2.91,2.58,26.78,23.44,50.87,35.08,30,14.53,54.63,13.83,54.88,13.82,1.09,0,2.49,0,4.1,0,19-.07,76.94-.26,110.74-62.53,13.1-24.14,21.08-58.31,24.4-104.45,2-27.66,2.41-59.88,1.24-98.59H276.48c-12.63-.11-22.88-9.55-22.88-21.15s10.25-21,22.88-21.14H348q-1-19.47-2.47-40.92a97.74,97.74,0,0,1-39.24-24.41,100.74,100.74,0,0,1,0-141.08,97.49,97.49,0,0,1,139.21,0,99.83,99.83,0,0,1,28.82,70.54c0,27-9.79,52.08-27.56,70.54a94.37,94.37,0,0,1-40.56,24.77q-1.44,21.28-2.44,40.56h71.45c.49,0,1,0,1.47.05,12,.7,21.61,9.89,21.61,21.1,0,10.3-8.07,18.89-18.71,20.77a26.21,26.21,0,0,1-4.37.38H402c-1.17,38.71-.74,70.93,1.24,98.59,3.32,46.14,11.3,80.31,24.4,104.45,33.8,62.27,91.7,62.46,110.73,62.53,1.62,0,3,0,4.11,0,.25,0,24.84.71,54.88-13.82,24.09-11.65,48-32.5,50.87-35.08l-34.17-5.41.5-.27L693,865.4v.35l-3.38,86.34-.37-.49-24.15-32.81c-54.69,92.22-140.18,124.62-202.3,135.56-42.89,7.56-71.23,27.43-86.63,60.74l-.06.12h-.38l-.06-.12c-15.4-33.31-43.73-53.18-86.63-60.74C226.91,1043.41,141.42,1011,86.73,918.8Zm602.5,32.1,3.32-84.82-77.24,41.09,33.83,5.36-.29.26c-.26.23-25.63,23-51.26,35.41-30.15,14.58-54.85,13.87-55.09,13.87-1.09,0-2.49-.05-4.1-.05-10.21,0-29.21-.1-50.27-8-25.89-9.68-46.35-28.1-60.83-54.78-13.13-24.19-21.13-58.41-24.45-104.6-2-27.66-2.41-59.9-1.24-98.61v-.38h73.63c12.5,0,22.66-9.32,22.66-20.77s-10.16-20.76-22.66-20.76H403.35c0-.13,0-.26,0-.39q1-19.24,2.43-40.42l0-.42.43-.14c40.1-12.35,67.67-49.06,67.67-94.89,0-54.8-44-99.39-98-99.39s-98,44.59-98,99.39c0,44,28.41,81.48,67.61,94.48l.43.15c0,.15,0,.3,0,.46q1.44,21.39,2.45,40.78c0,.13,0,.26,0,.39H276.69c-12.5,0-22.67,9.31-22.67,20.76s10.17,20.77,22.67,20.77l.55,0h73v.38c1.17,38.71.74,70.95-1.24,98.61-3.32,46.19-11.32,80.41-24.45,104.6C310,926,289.58,944.38,263.69,954.06c-21.06,7.86-40.06,7.92-50.27,8-1.61,0-3,0-4.09.05-.25,0-25,.71-55.1-13.87-25.63-12.39-51-35.18-51.26-35.41l-.29-.26,33.83-5.36L59.27,866.08l3.32,84.82,24.18-32.85.16.28C141.53,1010.62,227,1043,289.11,1054c42.91,7.56,71.31,27.41,86.8,60.67,15.49-33.26,43.89-53.11,86.8-60.67,62.09-10.94,147.57-43.35,202.18-135.64l.16-.28Z"/><path class="cls-1" d="M692.55,866.08l-3.32,84.82-24.18-32.85-.16.28C610.28,1010.62,524.8,1043,462.71,1054c-42.91,7.56-71.31,27.41-86.8,60.67-15.49-33.26-43.89-53.11-86.8-60.67C227,1043,141.53,1010.62,86.93,918.33l-.16-.28L62.59,950.9l-3.32-84.82,77.24,41.09-33.83,5.36.29.26c.26.23,25.63,23,51.26,35.41,30.15,14.58,54.85,13.87,55.1,13.87,1.08,0,2.48-.05,4.09-.05,10.21,0,29.21-.1,50.27-8,25.89-9.68,46.35-28.1,60.83-54.78,13.13-24.19,21.13-58.41,24.45-104.6,2-27.66,2.41-59.9,1.24-98.61v-.38h-73l-.55,0c-12.5,0-22.67-9.32-22.67-20.77s10.17-20.76,22.67-20.76h71.78c0-.13,0-.26,0-.39q-1-19.41-2.45-40.78c0-.16,0-.31,0-.46l-.43-.15c-39.2-13-67.61-50.44-67.61-94.48,0-54.8,44-99.39,98-99.39s98,44.59,98,99.39c0,45.83-27.57,82.54-67.67,94.89l-.43.14,0,.42q-1.43,21.2-2.43,40.42c0,.13,0,.26,0,.39h71.89c12.5,0,22.66,9.31,22.66,20.76s-10.16,20.77-22.66,20.77H401.61v.38c-1.17,38.71-.74,70.95,1.24,98.61,3.32,46.19,11.32,80.41,24.45,104.6,14.48,26.68,34.94,45.1,60.83,54.78,21.06,7.86,40.06,7.92,50.27,8,1.61,0,3,0,4.1.05.24,0,24.94.71,55.09-13.87,25.63-12.39,51-35.18,51.26-35.41l.29-.26-33.83-5.36ZM421.21,517.9c0-25.31-20.31-45.89-45.29-45.89s-45.28,20.58-45.28,45.89,20.32,45.89,45.28,45.89S421.21,543.21,421.21,517.9Z"/><path class="cls-1" d="M375.92,472c25,0,45.29,20.58,45.29,45.89s-20.31,45.89-45.29,45.89-45.28-20.58-45.28-45.89S351,472,375.92,472Zm44.87,45.89c0-25.1-20.12-45.51-44.87-45.51s-44.86,20.41-44.86,45.51,20.13,45.51,44.86,45.51S420.79,543,420.79,517.9Z"/><path class="cls-1" d="M764.39,420.87H866.76V841.69H764.39V682.88H636V841.69H533.58V420.87H636V586H764.39Z"/><path class="cls-1" d="M1172.68,841.69l-17.56-51H1015.18l-18.17,51H888.57L1040,420.87h96.92l143.57,420.82ZM1050.31,693.77h72.09l-35.13-102Z"/><path class="cls-1" d="M1503.35,845a242.15,242.15,0,0,1-85.23-15.48,218.64,218.64,0,0,1-74.77-47q-32-30.94-48.92-69.79a208.7,208.7,0,0,1,0-164.68,210.73,210.73,0,0,1,48.92-69.21,221.65,221.65,0,0,1,75.08-47.3,239.92,239.92,0,0,1,85.23-15.77,237.5,237.5,0,0,1,84.92,15.77,222.61,222.61,0,0,1,74.77,47.3l-73.23,69.5A118.58,118.58,0,0,0,1549.5,523a131.59,131.59,0,0,0-46.15-8.47A129.07,129.07,0,0,0,1457.5,523a119,119,0,0,0-40.31,25.4,121.49,121.49,0,0,0-26.46,38,109.31,109.31,0,0,0-9.23,44.38,107.17,107.17,0,0,0,9.23,44.09,122.4,122.4,0,0,0,26.46,37.67,118.9,118.9,0,0,0,40.31,25.41,129.06,129.06,0,0,0,45.85,8.46,131.58,131.58,0,0,0,46.15-8.46,118.45,118.45,0,0,0,40.62-25.41l73.23,70.08a219.48,219.48,0,0,1-74.46,47A241.41,241.41,0,0,1,1503.35,845Z"/><path class="cls-1" d="M2083.79,420.3l-228.39,211,228.39,210.41H1936L1793,709.25V841.69H1690.63V420.3H1793v133l143.57-133Z"/><path class="cls-1" d="M429.43,48.13h77.39V366.24H429.43v-120H332.34V366.24H255V48.13h77.39V173h97.09Z"/><path class="cls-1" d="M623.14,366.24h-77.4V47.69h77.4Z"/><path class="cls-1" d="M942.32,188.12V366.24H864.47v-7.8a148.26,148.26,0,0,1-26.33,6.29,187.4,187.4,0,0,1-26.79,1.95A179.54,179.54,0,0,1,747.7,355a165.13,165.13,0,0,1-55.87-35.11Q667.1,296.47,655,267.21a155.25,155.25,0,0,1-12.13-60A156.9,156.9,0,0,1,655,146.94q12.13-29.46,36.87-52.87A164.83,164.83,0,0,1,747.7,59,179,179,0,0,1,875,59a164.92,164.92,0,0,1,55.87,35.11l-55,52a88.28,88.28,0,0,0-30.22-18.86,97.08,97.08,0,0,0-68.7,0,88.19,88.19,0,0,0-30.22,18.86,85.38,85.38,0,0,0-20.15,28.6,80.33,80.33,0,0,0,0,65,85.41,85.41,0,0,0,20.15,28.61,89,89,0,0,0,26.79,17.55,95,95,0,0,0,30.68,7.37,100.22,100.22,0,0,0,31.37-2.82,89,89,0,0,0,28.85-13v-16H797.15V188.12Z"/><path class="cls-1" d="M1145.64,48.13H1223V366.24h-77.39v-120h-97.08V366.24H971.17V48.13h77.39V173h97.08Z"/><path class="cls-1" d="M1463.84,121.37H1340.33a1,1,0,0,0-1,1v46.13a1,1,0,0,0,1,1h97.41a1,1,0,0,1,1,1v71.28a1,1,0,0,1-1,1h-97.41a1,1,0,0,0-1,1V365.26a1,1,0,0,1-1,1h-75.43a1,1,0,0,1-1-1V49.11a1,1,0,0,1,1-1h200.9a1,1,0,0,1,1,1v71.28A1,1,0,0,1,1463.84,121.37Z"/><path class="cls-1" d="M1574.27,366.24h-77.39V47.69h77.39Z"/><path class="cls-1" d="M1830.72,121.37h-138.3v48.11h112.19v73.24H1692.42V293h138.3v73.24H1615V48.56l215.7-.43Z"/><path class="cls-1" d="M2070.68,366.24H1870.56V47.69H1948V293h122.73Z"/><path class="cls-1" d="M2169.13,46.83a172.27,172.27,0,0,1,63,15.16,174.27,174.27,0,0,1,51.29,35.11,163.12,163.12,0,0,1,34.34,50.28,149.9,149.9,0,0,1,12.6,61.11,146.56,146.56,0,0,1-12.37,60,156.67,156.67,0,0,1-34.11,49.19,169.23,169.23,0,0,1-51.06,34,180.57,180.57,0,0,1-63.66,14.51h-77.39V46.39h77.39Zm0,245.74a101.12,101.12,0,0,0,33.2-8.89,94.07,94.07,0,0,0,26.56-18.2,81.31,81.31,0,0,0,17.63-25.79,77.24,77.24,0,0,0,6.42-31.2,83,83,0,0,0-6.42-32.29,88,88,0,0,0-17.85-27.31,96.86,96.86,0,0,0-26.57-19.5,93,93,0,0,0-33-9.32Z"/><path class="cls-2" d="M1913.73,906.8l-24.51,33.29-3.4-86.69.33.17,78.57,41.8-.56.09-33.6,5.32c2.91,2.58,26.78,23.44,50.87,35.08,30,14.53,54.63,13.83,54.88,13.82,1.09,0,2.49,0,4.1,0,19-.07,76.94-.26,110.74-62.53,13.1-24.14,21.08-58.31,24.4-104.45,2-27.66,2.41-59.88,1.24-98.59h-73.31c-12.63-.11-22.88-9.55-22.88-21.15s10.25-21,22.88-21.14H2175q-1-19.47-2.47-40.92a97.74,97.74,0,0,1-39.24-24.41,100.74,100.74,0,0,1,0-141.08,97.49,97.49,0,0,1,139.21,0,99.83,99.83,0,0,1,28.82,70.54c0,27-9.79,52.08-27.56,70.54a94.37,94.37,0,0,1-40.56,24.77q-1.44,21.28-2.44,40.56h71.45c.49,0,1,0,1.47.05,12,.7,21.61,9.89,21.61,21.1,0,10.3-8.07,18.89-18.71,20.77a26.21,26.21,0,0,1-4.37.38H2229c-1.17,38.71-.74,70.93,1.24,98.59,3.32,46.14,11.3,80.31,24.4,104.45,33.8,62.27,91.7,62.46,110.73,62.53,1.62,0,3,0,4.11,0,.25,0,24.84.71,54.88-13.82,24.09-11.65,48-32.5,50.87-35.08l-34.17-5.41.5-.27L2520,853.4v.35l-3.38,86.34-.37-.49-24.15-32.81c-54.69,92.22-140.18,124.62-202.3,135.56-42.89,7.56-71.23,27.43-86.63,60.74l-.06.12h-.38l-.06-.12c-15.4-33.31-43.73-53.18-86.63-60.74C2053.91,1031.41,1968.42,999,1913.73,906.8Zm602.5,32.1,3.32-84.82-77.24,41.09,33.83,5.36-.29.26c-.26.23-25.63,23-51.26,35.41-30.15,14.58-54.85,13.87-55.09,13.87-1.09,0-2.49-.05-4.1-.05-10.21,0-29.21-.1-50.27-8-25.89-9.68-46.35-28.1-60.83-54.78-13.13-24.19-21.13-58.41-24.45-104.6-2-27.66-2.41-59.9-1.24-98.61v-.38h73.63c12.5,0,22.66-9.32,22.66-20.77s-10.16-20.76-22.66-20.76h-71.89c0-.13,0-.26,0-.39q1-19.24,2.43-40.42l0-.42.43-.14c40.1-12.35,67.67-49.06,67.67-94.89,0-54.8-44-99.39-98-99.39s-98,44.59-98,99.39c0,44,28.41,81.48,67.61,94.48l.43.15c0,.15,0,.3,0,.46q1.44,21.39,2.45,40.78c0,.13,0,.26,0,.39h-71.78c-12.5,0-22.67,9.31-22.67,20.76s10.17,20.77,22.67,20.77l.55,0h73v.38c1.17,38.71.74,70.95-1.24,98.61-3.32,46.19-11.32,80.41-24.45,104.6-14.48,26.68-34.94,45.1-60.83,54.78-21.06,7.86-40.06,7.92-50.27,8-1.61,0-3,0-4.09.05-.25,0-24.95.71-55.1-13.87-25.63-12.39-51-35.18-51.26-35.41l-.29-.26,33.83-5.36-77.24-41.09,3.32,84.82,24.18-32.85.16.28C1968.53,998.62,2054,1031,2116.11,1042c42.91,7.56,71.31,27.41,86.8,60.67,15.49-33.26,43.89-53.11,86.8-60.67,62.09-10.94,147.57-43.35,202.18-135.64l.16-.28Z"/><path class="cls-2" d="M2519.55,854.08l-3.32,84.82-24.18-32.85-.16.28C2437.28,998.62,2351.8,1031,2289.71,1042c-42.91,7.56-71.31,27.41-86.8,60.67-15.49-33.26-43.89-53.11-86.8-60.67C2054,1031,1968.53,998.62,1913.93,906.33l-.16-.28-24.18,32.85-3.32-84.82,77.24,41.09-33.83,5.36.29.26c.26.23,25.63,23,51.26,35.41,30.15,14.58,54.85,13.87,55.1,13.87,1.08,0,2.48-.05,4.09-.05,10.21,0,29.21-.1,50.27-8,25.89-9.68,46.35-28.1,60.83-54.78,13.13-24.19,21.13-58.41,24.45-104.6,2-27.66,2.41-59.9,1.24-98.61v-.38h-73l-.55,0c-12.5,0-22.67-9.32-22.67-20.77s10.17-20.76,22.67-20.76h71.78c0-.13,0-.26,0-.39q-1-19.41-2.45-40.78c0-.16,0-.31,0-.46l-.43-.15c-39.2-13-67.61-50.44-67.61-94.48,0-54.8,44-99.39,98-99.39s98,44.59,98,99.39c0,45.83-27.57,82.54-67.67,94.89l-.43.14,0,.42q-1.43,21.2-2.43,40.42c0,.13,0,.26,0,.39h71.89c12.5,0,22.66,9.31,22.66,20.76s-10.16,20.77-22.66,20.77h-73.63v.38c-1.17,38.71-.74,70.95,1.24,98.61,3.32,46.19,11.32,80.41,24.45,104.6,14.48,26.68,34.94,45.1,60.83,54.78,21.06,7.86,40.06,7.92,50.27,8,1.61,0,3,0,4.1.05.24,0,24.94.71,55.09-13.87,25.63-12.39,51-35.18,51.26-35.41l.29-.26-33.83-5.36ZM2248.21,505.9c0-25.31-20.31-45.89-45.29-45.89s-45.28,20.58-45.28,45.89,20.32,45.89,45.28,45.89S2248.21,531.21,2248.21,505.9Z"/><path class="cls-2" d="M2202.92,460c25,0,45.29,20.58,45.29,45.89s-20.31,45.89-45.29,45.89-45.28-20.58-45.28-45.89S2178,460,2202.92,460Zm44.87,45.89c0-25.1-20.12-45.51-44.87-45.51s-44.86,20.41-44.86,45.51,20.13,45.51,44.86,45.51S2247.79,531,2247.79,505.9Z"/><path class="cls-2" d="M98.73,906.8,74.22,940.09l-3.4-86.69.33.17,78.57,41.8-.56.09-33.6,5.32c2.91,2.58,26.78,23.44,50.87,35.08,30,14.53,54.63,13.83,54.88,13.82,1.09,0,2.49,0,4.1,0,19-.07,76.94-.26,110.74-62.53,13.1-24.14,21.08-58.31,24.4-104.45,2-27.66,2.41-59.88,1.24-98.59H288.48c-12.63-.11-22.88-9.55-22.88-21.15s10.25-21,22.88-21.14H360q-1-19.47-2.47-40.92a97.74,97.74,0,0,1-39.24-24.41,100.74,100.74,0,0,1,0-141.08,97.49,97.49,0,0,1,139.21,0,99.83,99.83,0,0,1,28.82,70.54c0,27-9.79,52.08-27.56,70.54a94.37,94.37,0,0,1-40.56,24.77q-1.44,21.28-2.44,40.56h71.45c.49,0,1,0,1.47.05,12,.7,21.61,9.89,21.61,21.1,0,10.3-8.07,18.89-18.71,20.77a26.21,26.21,0,0,1-4.37.38H414c-1.17,38.71-.74,70.93,1.24,98.59,3.32,46.14,11.3,80.31,24.4,104.45,33.8,62.27,91.7,62.46,110.73,62.53,1.62,0,3,0,4.11,0,.25,0,24.84.71,54.88-13.82,24.09-11.65,48-32.5,50.87-35.08l-34.17-5.41.5-.27L705,853.4v.35l-3.38,86.34-.37-.49-24.15-32.81C622.4,999,536.91,1031.41,474.79,1042.35c-42.89,7.56-71.23,27.43-86.63,60.74l-.06.12h-.38l-.06-.12c-15.4-33.31-43.73-53.18-86.63-60.74C238.91,1031.41,153.42,999,98.73,906.8Zm602.5,32.1,3.32-84.82-77.24,41.09,33.83,5.36-.29.26c-.26.23-25.63,23-51.26,35.41-30.15,14.58-54.85,13.87-55.09,13.87-1.09,0-2.49-.05-4.1-.05-10.21,0-29.21-.1-50.27-8-25.89-9.68-46.35-28.1-60.83-54.78-13.13-24.19-21.13-58.41-24.45-104.6-2-27.66-2.41-59.9-1.24-98.61v-.38h73.63c12.5,0,22.66-9.32,22.66-20.77s-10.16-20.76-22.66-20.76H415.35c0-.13,0-.26,0-.39q1-19.24,2.43-40.42l0-.42.43-.14c40.1-12.35,67.67-49.06,67.67-94.89,0-54.8-44-99.39-98-99.39s-98,44.59-98,99.39c0,44,28.41,81.48,67.61,94.48l.43.15c0,.15,0,.3,0,.46q1.44,21.39,2.45,40.78c0,.13,0,.26,0,.39H288.69c-12.5,0-22.67,9.31-22.67,20.76s10.17,20.77,22.67,20.77l.55,0h73v.38c1.17,38.71.74,70.95-1.24,98.61-3.32,46.19-11.32,80.41-24.45,104.6C322,914,301.58,932.38,275.69,942.06c-21.06,7.86-40.06,7.92-50.27,8-1.61,0-3,0-4.09.05-.25,0-25,.71-55.1-13.87-25.63-12.39-51-35.18-51.26-35.41l-.29-.26,33.83-5.36L71.27,854.08l3.32,84.82,24.18-32.85.16.28C153.53,998.62,239,1031,301.11,1042c42.91,7.56,71.31,27.41,86.8,60.67,15.49-33.26,43.89-53.11,86.8-60.67C536.8,1031,622.28,998.62,676.89,906.33l.16-.28Z"/><path class="cls-2" d="M704.55,854.08l-3.32,84.82-24.18-32.85-.16.28C622.28,998.62,536.8,1031,474.71,1042c-42.91,7.56-71.31,27.41-86.8,60.67-15.49-33.26-43.89-53.11-86.8-60.67C239,1031,153.53,998.62,98.93,906.33l-.16-.28L74.59,938.9l-3.32-84.82,77.24,41.09-33.83,5.36.29.26c.26.23,25.63,23,51.26,35.41,30.15,14.58,54.85,13.87,55.1,13.87,1.08,0,2.48-.05,4.09-.05,10.21,0,29.21-.1,50.27-8,25.89-9.68,46.35-28.1,60.83-54.78,13.13-24.19,21.13-58.41,24.45-104.6,2-27.66,2.41-59.9,1.24-98.61v-.38h-73l-.55,0c-12.5,0-22.67-9.32-22.67-20.77s10.17-20.76,22.67-20.76h71.78c0-.13,0-.26,0-.39q-1-19.41-2.45-40.78c0-.16,0-.31,0-.46l-.43-.15c-39.2-13-67.61-50.44-67.61-94.48,0-54.8,44-99.39,98-99.39s98,44.59,98,99.39c0,45.83-27.57,82.54-67.67,94.89l-.43.14,0,.42q-1.43,21.2-2.43,40.42c0,.13,0,.26,0,.39h71.89c12.5,0,22.66,9.31,22.66,20.76s-10.16,20.77-22.66,20.77H413.61v.38c-1.17,38.71-.74,70.95,1.24,98.61,3.32,46.19,11.32,80.41,24.45,104.6,14.48,26.68,34.94,45.1,60.83,54.78,21.06,7.86,40.06,7.92,50.27,8,1.61,0,3,0,4.1.05.24,0,24.94.71,55.09-13.87,25.63-12.39,51-35.18,51.26-35.41l.29-.26-33.83-5.36ZM433.21,505.9c0-25.31-20.31-45.89-45.29-45.89s-45.28,20.58-45.28,45.89,20.32,45.89,45.28,45.89S433.21,531.21,433.21,505.9Z"/><path class="cls-2" d="M387.92,460c25,0,45.29,20.58,45.29,45.89s-20.31,45.89-45.29,45.89-45.28-20.58-45.28-45.89S363,460,387.92,460Zm44.87,45.89c0-25.1-20.12-45.51-44.87-45.51s-44.86,20.41-44.86,45.51,20.13,45.51,44.86,45.51S432.79,531,432.79,505.9Z"/><path class="cls-2" d="M777.39,408.87H879.76V829.69H777.39V670.88H649V829.69H546.58V408.87H649V574H777.39Z"/><path class="cls-2" d="M1185.68,829.69l-17.56-51H1028.18l-18.17,51H901.57L1053,408.87h96.92l143.57,420.82ZM1063.31,681.77h72.09l-35.13-102Z"/><path class="cls-2" d="M1516.35,833a242.15,242.15,0,0,1-85.23-15.48,218.64,218.64,0,0,1-74.77-47q-32-30.94-48.92-69.79a208.7,208.7,0,0,1,0-164.68,210.73,210.73,0,0,1,48.92-69.21,221.65,221.65,0,0,1,75.08-47.3,239.92,239.92,0,0,1,85.23-15.77,237.5,237.5,0,0,1,84.92,15.77,222.61,222.61,0,0,1,74.77,47.3l-73.23,69.5A118.58,118.58,0,0,0,1562.5,511a131.59,131.59,0,0,0-46.15-8.47A129.07,129.07,0,0,0,1470.5,511a119,119,0,0,0-40.31,25.4,121.49,121.49,0,0,0-26.46,38,109.31,109.31,0,0,0-9.23,44.38,107.17,107.17,0,0,0,9.23,44.09,122.4,122.4,0,0,0,26.46,37.67,118.9,118.9,0,0,0,40.31,25.41,129.06,129.06,0,0,0,45.85,8.46,131.58,131.58,0,0,0,46.15-8.46,118.45,118.45,0,0,0,40.62-25.41l73.23,70.08a219.48,219.48,0,0,1-74.46,47A241.41,241.41,0,0,1,1516.35,833Z"/><path class="cls-2" d="M2096.79,408.3l-228.39,211,228.39,210.41H1949L1806,697.25V829.69H1703.63V408.3H1806v133l143.57-133Z"/><path class="cls-2" d="M441.43,36.13h77.39V354.24H441.43v-120H344.34V354.24H267V36.13h77.39V161h97.09Z"/><path class="cls-2" d="M635.14,354.24h-77.4V35.69h77.4Z"/><path class="cls-2" d="M954.32,176.12V354.24H876.47v-7.8a148.26,148.26,0,0,1-26.33,6.29,187.4,187.4,0,0,1-26.79,1.95A179.54,179.54,0,0,1,759.7,343a165.13,165.13,0,0,1-55.87-35.11Q679.1,284.47,667,255.21a155.25,155.25,0,0,1-12.13-60A156.9,156.9,0,0,1,667,134.94q12.13-29.46,36.87-52.87A164.83,164.83,0,0,1,759.7,47,179,179,0,0,1,887,47a164.92,164.92,0,0,1,55.87,35.11l-55,52a88.28,88.28,0,0,0-30.22-18.86,97.08,97.08,0,0,0-68.7,0,88.19,88.19,0,0,0-30.22,18.86,85.38,85.38,0,0,0-20.15,28.6,80.33,80.33,0,0,0,0,65,85.41,85.41,0,0,0,20.15,28.61,89,89,0,0,0,26.79,17.55,95,95,0,0,0,30.68,7.37,100.22,100.22,0,0,0,31.37-2.82,89,89,0,0,0,28.85-13v-16H809.15V176.12Z"/><path class="cls-2" d="M1157.64,36.13H1235V354.24h-77.39v-120h-97.08V354.24H983.17V36.13h77.39V161h97.08Z"/><path class="cls-2" d="M1475.84,109.37H1352.33a1,1,0,0,0-1,1v46.13a1,1,0,0,0,1,1h97.41a1,1,0,0,1,1,1v71.28a1,1,0,0,1-1,1h-97.41a1,1,0,0,0-1,1V353.26a1,1,0,0,1-1,1h-75.43a1,1,0,0,1-1-1V37.11a1,1,0,0,1,1-1h200.9a1,1,0,0,1,1,1v71.28A1,1,0,0,1,1475.84,109.37Z"/><path class="cls-2" d="M1586.27,354.24h-77.39V35.69h77.39Z"/><path class="cls-2" d="M1842.72,109.37h-138.3v48.11h112.19v73.24H1704.42V281h138.3v73.24H1627V36.56l215.7-.43Z"/><path class="cls-2" d="M2082.68,354.24H1882.56V35.69H1960V281h122.73Z"/><path class="cls-2" d="M2181.13,34.83a172.27,172.27,0,0,1,63,15.16,174.27,174.27,0,0,1,51.29,35.11,163.12,163.12,0,0,1,34.34,50.28,149.9,149.9,0,0,1,12.6,61.11,146.56,146.56,0,0,1-12.37,60,156.67,156.67,0,0,1-34.11,49.19,169.23,169.23,0,0,1-51.06,34,180.57,180.57,0,0,1-63.66,14.51h-77.39V34.39h77.39Zm0,245.74a101.12,101.12,0,0,0,33.2-8.89,94.07,94.07,0,0,0,26.56-18.2,81.31,81.31,0,0,0,17.63-25.79,77.24,77.24,0,0,0,6.42-31.2,83,83,0,0,0-6.42-32.29,88,88,0,0,0-17.85-27.31,96.86,96.86,0,0,0-26.57-19.5,93,93,0,0,0-33-9.32Z"/></g></svg>