<?xml version="1.0" encoding="UTF-8"?>
<svg xmlns="http://www.w3.org/2000/svg" xmlns:xlink="http://www.w3.org/1999/xlink" width="249pt" height="49pt" viewBox="0 0 249 49" version="1.1">
<g id="surface1">
<path style=" stroke:none;fill-rule:nonzero;fill:rgb(9.803922%,23.529412%,41.960784%);fill-opacity:1;" d="M 64.277344 25.199219 C 61.761719 23.941406 57.984375 23.871094 54.90625 23.519531 C 53.367188 23.378906 51.96875 23.101562 50.988281 22.679688 C 50.5 22.46875 50.148438 22.191406 49.871094 21.839844 C 49.589844 21.488281 49.449219 21.070312 49.449219 20.511719 C 49.449219 19.320312 50.078125 18.480469 51.269531 17.921875 C 52.457031 17.359375 54.136719 17.078125 56.164062 17.078125 C 58.894531 17.078125 60.710938 17.710938 61.96875 18.410156 C 63.230469 19.179688 63.929688 20.019531 64.347656 20.441406 L 64.488281 20.578125 L 66.515625 18.96875 L 66.445312 18.96875 C 65.046875 17.011719 61.691406 14.839844 56.304688 14.839844 C 53.507812 14.839844 51.128906 15.261719 49.378906 16.238281 C 47.632812 17.21875 46.582031 18.761719 46.582031 20.929688 C 46.582031 21.980469 46.863281 22.820312 47.351562 23.449219 C 48.261719 24.640625 49.730469 25.269531 51.546875 25.621094 C 54.207031 26.179688 57.425781 26.25 59.941406 26.671875 C 61.199219 26.878906 62.320312 27.160156 63.089844 27.648438 C 63.859375 28.140625 64.277344 28.769531 64.277344 29.679688 C 64.277344 30.378906 64 31.011719 63.578125 31.5 C 62.949219 32.199219 61.898438 32.761719 60.710938 33.039062 C 59.523438 33.320312 58.191406 33.460938 57.074219 33.460938 C 54.066406 33.460938 52.109375 32.828125 50.710938 32.058594 C 49.378906 31.289062 48.609375 30.238281 47.980469 29.539062 L 47.910156 29.398438 L 47.773438 29.539062 L 45.742188 31.21875 L 45.882812 31.359375 C 47.632812 33.25 50.148438 36.050781 56.792969 35.980469 C 60.222656 35.980469 62.808594 35.28125 64.558594 34.160156 C 66.308594 33.039062 67.144531 31.429688 67.144531 29.75 C 67.144531 27.441406 65.957031 26.039062 64.277344 25.199219 Z M 71.203125 14.910156 L 71.203125 35.980469 L 74.140625 35.980469 L 74.140625 14.769531 L 71.203125 14.769531 Z M 98.339844 17.359375 C 96.3125 15.609375 93.515625 14.769531 90.226562 14.769531 L 79.734375 14.769531 L 79.734375 35.980469 L 89.386719 35.980469 C 92.1875 35.980469 95.195312 35.421875 97.5 33.808594 C 99.878906 32.199219 101.488281 29.46875 101.488281 25.199219 C 101.558594 21.699219 100.371094 19.109375 98.339844 17.359375 Z M 95.054688 32.269531 C 93.09375 33.320312 90.925781 33.390625 89.878906 33.390625 L 82.671875 33.390625 L 82.671875 17.359375 L 90.226562 17.359375 C 92.324219 17.359375 94.425781 17.78125 96.03125 18.96875 C 97.570312 20.160156 98.691406 22.050781 98.691406 25.058594 C 98.621094 29.121094 96.941406 31.148438 95.054688 32.269531 Z M 108.691406 26.25 L 122.121094 26.25 L 122.121094 23.660156 L 108.691406 23.660156 L 108.691406 17.359375 L 124.78125 17.359375 L 124.78125 14.769531 L 105.824219 14.769531 L 105.824219 35.980469 L 125.128906 35.980469 L 125.128906 33.390625 L 108.691406 33.390625 Z M 108.691406 26.25 "/>
<path style=" stroke:none;fill-rule:nonzero;fill:rgb(91.372549%,33.72549%,17.647059%);fill-opacity:1;" d="M 127.296875 17.359375 L 137.371094 17.359375 L 137.371094 35.980469 L 140.238281 35.980469 L 140.238281 17.359375 L 150.308594 17.359375 L 150.308594 14.769531 L 127.296875 14.769531 Z M 171.433594 25.339844 C 172.832031 24.429688 173.878906 22.960938 173.878906 20.71875 C 173.878906 18.128906 172.621094 16.589844 170.941406 15.75 C 169.265625 14.910156 167.164062 14.699219 165.488281 14.699219 L 153.316406 14.699219 L 153.316406 35.910156 L 156.183594 35.910156 L 156.183594 26.738281 L 164.089844 26.738281 L 170.804688 35.980469 L 174.371094 35.980469 L 167.445312 26.671875 C 168.703125 26.53125 170.171875 26.179688 171.433594 25.339844 Z M 156.113281 24.148438 L 156.113281 17.359375 L 164.859375 17.359375 C 166.675781 17.359375 168.214844 17.5 169.335938 17.988281 C 169.894531 18.269531 170.3125 18.550781 170.59375 19.039062 C 170.871094 19.460938 171.011719 20.019531 171.011719 20.789062 C 171.011719 21.558594 170.871094 22.121094 170.59375 22.539062 C 170.171875 23.238281 169.402344 23.589844 168.425781 23.871094 C 167.445312 24.148438 166.1875 24.21875 164.859375 24.21875 L 156.113281 24.21875 Z M 186.890625 14.769531 L 186.820312 14.839844 L 175.980469 35.980469 L 179.195312 35.980469 L 181.925781 30.589844 L 195.144531 30.589844 L 197.871094 35.980469 L 201.089844 35.980469 L 190.246094 14.769531 Z M 183.253906 27.929688 L 188.570312 17.289062 L 193.882812 27.929688 Z M 222.699219 17.359375 C 220.671875 15.609375 217.875 14.769531 214.585938 14.769531 L 204.097656 14.769531 L 204.097656 35.980469 L 213.75 35.980469 C 216.546875 35.980469 219.554688 35.421875 221.863281 33.808594 C 224.238281 32.199219 225.847656 29.46875 225.847656 25.199219 C 225.917969 21.699219 224.730469 19.109375 222.699219 17.359375 Z M 219.34375 32.269531 C 217.386719 33.320312 215.21875 33.390625 214.167969 33.390625 L 206.964844 33.390625 L 206.964844 17.359375 L 214.585938 17.359375 C 216.6875 17.359375 218.785156 17.78125 220.394531 18.96875 C 221.933594 20.160156 223.050781 22.050781 223.050781 25.058594 C 222.980469 29.121094 221.300781 31.148438 219.34375 32.269531 Z M 232.492188 33.390625 L 232.492188 26.25 L 245.921875 26.25 L 245.921875 23.660156 L 232.492188 23.660156 L 232.492188 17.359375 L 248.511719 17.359375 L 248.511719 14.769531 L 229.625 14.769531 L 229.625 35.980469 L 248.859375 35.980469 L 248.859375 33.390625 Z M 232.492188 33.390625 "/>
<path style=" stroke:none;fill-rule:nonzero;fill:rgb(6.27451%,15.686275%,31.764706%);fill-opacity:1;" d="M 4.894531 31.710938 C 8.601562 35.421875 4.894531 31.78125 1.398438 28.28125 C -0.980469 33.949219 0.417969 36.609375 0.417969 36.609375 C 2.726562 41.230469 10.070312 37.101562 10.070312 37.101562 C 5.386719 32.269531 5.457031 32.269531 10.003906 37.03125 Z M 4.894531 31.710938 "/>
<path style=" stroke:none;fill-rule:nonzero;fill:rgb(9.803922%,23.529412%,41.960784%);fill-opacity:1;" d="M 0.28125 37.519531 C -0.0703125 36.960938 0.699219 39.199219 6.433594 43.960938 C 8.8125 45.988281 11.609375 47.460938 11.609375 47.460938 C 17.554688 49.210938 26.859375 40.320312 26.859375 40.320312 C 27.488281 39.96875 27.835938 40.671875 27.835938 40.671875 L 32.875 48.089844 C 33.363281 48.859375 33.921875 48.71875 34.0625 48.441406 C 34.273438 48.089844 34.203125 47.878906 34.203125 47.878906 C 32.664062 37.589844 30.914062 31.21875 30.636719 30.238281 C 30.355469 28.910156 28.886719 28.488281 28.886719 28.488281 C 28.886719 28.488281 13.570312 26.179688 10.5625 25.480469 C 10.5625 25.480469 9.792969 25.410156 9.792969 25.96875 C 9.792969 26.109375 9.722656 26.25 10.003906 26.53125 L 18.464844 31.640625 C 18.464844 31.640625 19.164062 31.988281 18.394531 32.621094 C 18.464844 32.621094 3.917969 43.75 0.28125 37.519531 "/>
<path style=" stroke:none;fill-rule:nonzero;fill:rgb(62.352941%,19.607843%,13.72549%);fill-opacity:1;" d="M 29.445312 16.871094 C 25.738281 13.160156 29.445312 16.800781 32.945312 20.300781 C 35.320312 14.628906 33.921875 11.96875 33.921875 11.96875 C 31.613281 7.351562 24.269531 11.480469 24.269531 11.480469 C 28.957031 16.308594 28.886719 16.308594 24.339844 11.550781 Z M 29.445312 16.871094 "/>
<path style=" stroke:none;fill-rule:nonzero;fill:rgb(90.980392%,34.117647%,18.039216%);fill-opacity:1;" d="M 34.0625 11.128906 C 34.414062 11.691406 33.644531 9.378906 27.835938 4.621094 C 25.460938 2.589844 22.660156 1.121094 22.660156 1.121094 C 16.714844 -0.628906 7.414062 8.261719 7.414062 8.261719 C 6.785156 8.609375 6.433594 7.910156 6.433594 7.910156 L 1.328125 0.558594 C 0.839844 -0.210938 0.28125 -0.0703125 0.140625 0.210938 C -0.0703125 0.558594 0 0.769531 0 0.769531 C 1.539062 11.058594 3.289062 17.429688 3.566406 18.410156 C 3.847656 19.738281 5.316406 20.160156 5.316406 20.160156 C 5.316406 20.160156 20.632812 22.46875 23.640625 23.171875 C 23.640625 23.171875 24.410156 23.238281 24.410156 22.679688 C 24.410156 22.539062 24.480469 22.398438 24.199219 22.121094 L 15.738281 17.011719 C 15.738281 17.011719 15.039062 16.660156 15.808594 16.03125 C 15.808594 15.960938 30.355469 4.898438 34.0625 11.128906 "/>
</g>
</svg>
