<svg width="284" height="418" xmlns="http://www.w3.org/2000/svg"><g fill="none" fill-rule="evenodd"><path d="M283.289 133.036c-.247-5.638-2.343-10.68-4.571-15.287a157.745 157.745 0 00-11.287-19.61c-.728-1.078-1.221-1.972-1.743-2.919-1.484-2.691-3.165-5.741-8.243-8.734a25.057 25.057 0 00-9.606-3.295 33.07 33.07 0 00.075-6.06c-.729-8.732-4.8-17.364-11.171-23.684a245.509 245.509 0 01-3.613-3.68c-5.644-5.834-10.103-10.443-20.814-14.122-2.174-.747-5.959-1.409-15.997.118l-.284.044c-.649-5.459-2.542-11.778-7.733-16.265-4.044-3.496-8.837-4.812-12.689-5.868l-19.127-5.248c-4.658-1.279-10.455-2.867-16.625-1.911-6.559 1.018-11.81 4.541-16.202 8.794-3.691-5.401-7.668-9.53-11.148-11.428-8.755-4.776-38.169-7.032-53.827 7.134-2.065 1.868-4.449 5.173-8.129 10.393-1.892 2.683-4.75 6.738-5.736 7.664-.995.928-2.191 1.838-3.457 2.802-1.278.972-2.6 1.978-3.925 3.152-9.064 8.036-14.321 20.424-15.624 36.822-.405 5.088-.448 10.154-.49 15.053-.059 6.882-.115 13.382-1.103 19.72-.596 3.817-2.549 6.545-5.506 10.672-3.786 5.286-8.499 11.863-12.065 23.275l.476.148c-4.135 10.556-4.083 20.274-.339 30.29.807 2.157 1.819 4.164 2.941 6.076 12.871 28.99 15.529 47.965 22.121 64.72 3.491 8.872 7.315 16.487 11.724 24.185 4.305 7.517 8.867 13.484 13.545 18.177-.628 2.65-.686 5.682.093 9.006.708 3.016 1.922 5.652 2.994 7.977.651 1.414 1.266 2.749 1.689 3.993 1.286 3.786 1.334 8.249 1.266 13.267-.211 15.504-3.186 55.128-5.154 81.348-.511 6.8-.96 12.78-1.279 17.255H228.53c-.059-45.998-.537-75.986-.956-97.24l-.017-.87c-.164-8.398-.287-14.688-2.089-20.464 8.911-3.563 16.948-11.901 23.64-24.66 12.748-24.303 19.782-52.83 21.377-86.844 1.39-1.89 2.25-3.856 2.922-5.41 1.521-3.52 3.245-7.508 3.828-12.096.55-4.339-.113-8.531-1.829-12.035.671-1.281 1.35-2.56 2.006-3.847 3.158-6.187 6.213-12.866 5.877-20.508z" fill="#0A0B09"/><path d="M283.289 133.036c-.247-5.638-2.343-10.68-4.571-15.287a157.745 157.745 0 00-11.287-19.61c-.728-1.078-1.221-1.972-1.743-2.919-1.484-2.691-3.165-5.741-8.243-8.734a25.057 25.057 0 00-9.606-3.295 33.07 33.07 0 00.075-6.06c-.729-8.732-4.8-17.364-11.171-23.684a245.509 245.509 0 01-3.613-3.68c-5.644-5.834-10.103-10.443-20.814-14.122-2.174-.747-5.959-1.409-15.997.118l-.284.044c-.649-5.459-2.542-11.778-7.733-16.265-4.044-3.496-8.837-4.812-12.689-5.868l-19.127-5.248c-4.658-1.279-10.455-2.867-16.625-1.911-6.559 1.018-11.81 4.541-16.202 8.794-3.691-5.401-7.668-9.53-11.148-11.428-8.755-4.776-38.169-7.032-53.827 7.134-2.065 1.868-4.449 5.173-8.129 10.393-1.892 2.683-4.75 6.738-5.736 7.664-.995.928-2.191 1.838-3.457 2.802-1.278.972-2.6 1.978-3.925 3.152-9.064 8.036-14.321 20.424-15.624 36.822-.405 5.088-.448 10.154-.49 15.053-.059 6.882-.115 13.382-1.103 19.72-.596 3.817-2.549 6.545-5.506 10.672-3.786 5.286-8.499 11.863-12.065 23.275l.476.148c-4.135 10.556-4.083 20.274-.339 30.29.807 2.157 1.819 4.164 2.941 6.076 12.871 28.99 15.529 47.965 22.121 64.72 3.491 8.872 7.315 16.487 11.724 24.185 4.305 7.517 8.867 13.484 13.545 18.177-.628 2.65-.686 5.682.093 9.006.708 3.016 1.922 5.652 2.994 7.977.651 1.414 1.266 2.749 1.689 3.993 1.286 3.786 1.334 8.249 1.266 13.267-.211 15.504-3.186 55.128-5.154 81.348-.511 6.8-.96 12.78-1.279 17.255H228.53c-.059-45.998-.537-75.986-.956-97.24l-.017-.87c-.164-8.398-.287-14.688-2.089-20.464 8.911-3.563 16.948-11.901 23.64-24.66 12.748-24.303 19.782-52.83 21.377-86.844 1.39-1.89 2.25-3.856 2.922-5.41 1.521-3.52 3.245-7.508 3.828-12.096.55-4.339-.113-8.531-1.829-12.035.671-1.281 1.35-2.56 2.006-3.847 3.158-6.187 6.213-12.866 5.877-20.508z" fill="#0A0B09"/><path d="M161.839 47.93c2.965-1.082 6.031-2.201 9.213-3.124 1.416-.411 4.361-1.266 7.675-.257a10.9 10.9 0 012.653 1.235l.158-.578c.013-.357.034-.717.045-1.074.161-4.959-.025-10.971-2.904-13.459-1.525-1.319-4.288-2.077-6.959-2.81l-19.127-5.248c-3.646-1.001-7.414-2.034-10.475-1.561-4.06.631-7.809 4.074-11.083 7.874 2.586 6.108 4.989 13.85 5.829 22.676 3.049.494 5.992.795 8.832.624 5.229-.315 10.53-2.25 16.143-4.298zm13.425 98.933c-6.045 9.354-17.05 11.892-25.961 13.059a184.938 184.938 0 01-16.463 1.404c5.499 3.223 10.145 7.903 14.196 12.487a270.962 270.962 0 014.237 4.912 110.777 110.777 0 0032.553-6.15c3.492-1.221 7.437-2.8 10.22-5.242 3.807-3.342 6.999-8.149 10.047-15.126 4.665-10.681 8.445-18.865 11.78-26.086 4.97-10.764 8.896-19.265 13.371-30.849 2.191-5.671 4.457-11.536 4.008-16.917-.443-5.298-2.947-10.569-6.872-14.463-1.423-1.413-2.699-2.731-3.825-3.894-5.055-5.226-7.611-7.868-14.86-10.383-1.89-.328-7.297.347-11.678 1.097a276.464 276.464 0 01-1.223 14.983l-.166-.018c2.377 6.759 3.28 14.1 2.797 22.354.158 2.484-.112 5.024-.782 7.52-.024.165-.045.328-.07.494l-.071-.011c-1.241 4.287-3.641 8.42-7.055 11.873a33.842 33.842 0 01-2.408 2.201c-.705 5.652-3.946 17.043-8.476 29.695-.815 2.276-1.779 4.707-3.299 7.06" fill="#C7C6C1"/><path d="M162.906 138.877c.71-1.099 1.288-2.589 1.805-4.035 2.173-6.067 3.835-11.245 5.055-15.42a168.7 168.7 0 01-31.265 8.804c-2.294.41-4.857.815-7.572.815-.632 0-1.272-.023-1.919-.072-.925 5.032-3.08 10.974-6.436 17.769 8.294.131 16.601-.329 24.819-1.405 5.318-.696 12.713-2.123 15.513-6.456M46.112 87.841c3.767-3.935 7.372-7.864 10.746-11.951-3.124-11.415-.396-24.489 7.636-33.269-1.016 7.01-.059 14.275 2.623 20.827 2.309-2.477 4.829-4.827 7.722-6.897 14.165-10.13 32.316-9.831 46.847-7.688-2.931-17.538-13.239-30.438-16.221-32.065-4.568-2.491-26.915-3.915-36.908 5.127-1.04.96-4.13 5.343-5.977 7.962-3.506 4.973-5.776 8.124-7.718 9.938-1.538 1.436-3.091 2.617-4.592 3.759-1.112.846-2.161 1.644-3.072 2.452a24.15 24.15 0 00-3.203 3.471c-1.782 6.841-2.877 13.85-2.505 20.887.318 6.038 1.815 12.123 4.622 17.447" fill="#C7C6C1"/><path d="M237.371 214.2c-7.849 5.828-17.46 7.161-25.183 8.233-2.209.306-4.722.655-7.397.655-2.09 0-4.278-.213-6.497-.826-4.723-1.303-8.402-4.101-11.358-6.349l-7.498-5.702c12.074 13.672 17.735 32.24 9.497 63.161 0 0-2.701-28.841-11.897-39.876-4.292 26.362-27.588 42.301-27.588 42.301 19.618-38.623 14.694-47.826 12.15-55.407-1.86-5.547-5.129-10.68-9.465-16.68a264.393 264.393 0 00-16.124-20.154c-4.874-5.516-10.688-11.293-16.889-11.633-17.491-.96-13.2 16.819-36.496 24.176l12.387-25.601c-7.087 2.528-19.131 8.435-33.231-2.601 0 0 49.045-4.291 53.068-44.149-10.154-3.67-15.059-7.348-24.867-19.609 0 0 31.879 15.326 76.115.926 4.833-1.573 9.54-4.117 12.885-7.502 1.507-1.524 2.611-3.283 3.227-5.031.2-1.484.348-2.905.45-4.27-.015-.082-.026-.166-.044-.247l.063-.015c1.017-14.453-3.292-22.483-8.414-28.798-2.411.736-4.834 1.62-7.383 2.551-5.676 2.071-11.527 4.201-17.962 4.95 3.528 6.686 8.732 12.492 15.047 16.653-5.895.782-11.82-1.959-16.218-5.962-3.348-3.048-5.961-6.774-8.372-10.627-3.876-.361-7.616-1.102-11.279-1.827l-1.714-.338c-13.72-2.677-32.723-4.604-49.889 13.788-29.586 49.719-71.729 58.854-59.927 87.464 1.88 4.555 5.024 9.008 8.254 13.11 7.234 9.189 31.417 32.945 41.251 42.884 0 0-12.938-.004-28.473-9.851 2.238 8.561 3.913 16.559 7.005 24.418 3.285 8.348 6.35 15.078 10.253 21.378 11.854 19.14 27.486 28.715 38.866 33.427 5.15 1.355 10.451 2.064 15.774 1.937 14.306-.342 17.268-4.485 34.434-13.681-13.076 21.604-37.226 34.768-71.363 23.065 4.09 6.827 10.197 12.461 17.423 15.813-5.496.752-11.099-.28-16.103-2.636.002.96-.005 1.923-.018 2.889-.217 15.955-3.212 55.85-5.194 82.249l-.139 1.847h65.753c4.907-44.357 13.415-102.214 13.415-102.214s-.106 65.721-.385 102.214h21.043c1.982-50.144 4.482-118.182 4.482-118.182s4.424 69.308 6.537 118.182h34.4c-.128-37.911-.547-63.745-.92-82.643l-.017-.872c-.255-13.074-.478-16.701-4.272-21.713l-9.42-12.448 15.596.658c9.785.416 17.563-11.566 21.328-18.744 11.039-21.044 17.432-45.759 19.392-75.119a8.405 8.405 0 01-.237-.099 409.018 409.018 0 01-6.969 10.314c-3.128 4.47-6.315 8.765-10.893 12.163z" fill="#C7C6C1"/><path d="M174.265 59.202c-2.411.736-4.834 1.62-7.383 2.551-5.676 2.071-11.527 4.201-17.962 4.95a45.76 45.76 0 007.056 9.894c8.411-1.15 16.639-3.549 24.54-6.763-1.582-4.262-3.824-7.641-6.251-10.632" fill="#FFFFFE"/><path d="M265.471 124.153a143.114 143.114 0 00-10.231-17.777c-1.101-1.628-1.842-2.972-2.436-4.051-1.106-2.006-1.222-2.216-2.832-3.164-1.926-1.136-4.141-1.619-5.931-1.391-.361.962-.722 1.9-1.072 2.805-4.644 12.022-8.658 20.713-13.738 31.715-3.305 7.155-7.051 15.266-11.654 25.806-3.943 9.028-8.336 15.477-13.825 20.295-4.675 4.104-10.239 6.383-15.066 8.072a126.086 126.086 0 01-11.634 3.45l18.791 14.289c2.152 1.636 4.377 3.328 6.365 3.877 2.13.588 5.092.176 7.958-.221 6.378-.884 13.606-1.887 18.434-5.471 2.812-2.088 5.109-5.214 7.608-8.785a395.58 395.58 0 0028.099-46.747c2.359-4.621 4.461-9.106 4.283-13.173-.123-2.811-1.336-5.842-3.119-9.529" fill="#C7C6C1"/><path d="M181.329 148.893c-1.838-2.453-.427-12.858-.853-14.589a323.345 323.345 0 01-1.913 5.499c-.815 2.276-1.779 4.707-3.299 7.06-6.045 9.354-17.05 11.892-25.961 13.059a184.938 184.938 0 01-16.463 1.404c5.499 3.223 10.145 7.903 14.196 12.487a270.962 270.962 0 014.237 4.912 110.777 110.777 0 0032.553-6.15c3.492-1.221 7.437-2.8 10.22-5.242 1.312-1.152 2.55-2.483 3.736-4.012-4.599-5.501-11.673-8.587-16.453-14.428m-18.423-10.016c.71-1.099 1.288-2.589 1.805-4.035 2.173-6.067 3.835-11.245 5.055-15.42a168.7 168.7 0 01-31.265 8.804c-2.294.41-4.857.815-7.572.815-.632 0-1.272-.023-1.919-.072-.925 5.032-3.08 10.974-6.436 17.769 8.294.131 16.601-.329 24.819-1.405 5.318-.696 12.713-2.123 15.513-6.456M68.557 21.925c-1.04.96-4.13 5.343-5.977 7.962-3.506 4.973-5.776 8.124-7.718 9.938-1.538 1.436-3.091 2.617-4.592 3.759-1.112.846-2.161 1.644-3.072 2.452a24.15 24.15 0 00-3.203 3.471c-1.782 6.841-2.877 13.85-2.505 20.887.318 6.038 1.815 12.123 4.622 17.447 3.767-3.935 7.372-7.864 10.746-11.951-2.985-10.91-.613-23.324 6.613-32.067.594-7.883 2.309-15.673 5.827-22.521a16.48 16.48 0 00-.741.623m95.314 61.365l.096.066c-5.895.782-11.82-1.959-16.218-5.962-3.348-3.048-5.961-6.774-8.372-10.627a65.207 65.207 0 01-2.492-.286c-.631 2.207-.36 4.77.917 7.004 4.904 7.357 12.261 20.231 1.226 24.523-13.488 4.291-31.88-6.13-39.237 6.131-1.432 2.388 5.323 4.032 11.277 5.802 13.52 2.086 32.697 2.394 55.03-4.876 4.833-1.573 9.54-4.117 12.885-7.502 1.507-1.524 2.611-3.283 3.227-5.031.2-1.484.348-2.905.45-4.27-.015-.082-.026-.166-.044-.247l.063-.015c.251-3.558.177-6.725-.151-9.575-5.466 3.88-12.395 6.263-18.657 4.865" fill="#91928E"/><path d="M81.4 259.858c-8.583-6.744-12.262-10.422-15.94-17.779-4.904-11.036 6.131-15.94 10.422-17.779 0 0-7.97-8.583-4.905-13.487 1.226-2.453 6.131-3.066 9.809-4.292 9.842-3.281 30.041-24.523 34.332-23.91 14.714 3.066 44.754 35.558 32.493 77.86-1.847 6.369-19.005 30.653-66.211-.613zm-30.654-71.116c-.257-.772-.73-1.436-1.193-2.128 11.447 1.168 22.987-2.243 33.117-7.226-7.399 11.292-21.216 24.571-31.924 9.354zm204.487 2.981a409.018 409.018 0 01-6.969 10.314c-3.128 4.47-6.315 8.765-10.893 12.163-7.849 5.828-17.46 7.161-25.183 8.233-2.209.306-4.722.655-7.397.655-2.09 0-4.278-.213-6.497-.826-4.723-1.303-8.402-4.101-11.358-6.349l-7.498-5.702c12.074 13.672 17.735 32.24 9.497 63.161 0 0-2.701-28.841-11.897-39.876-4.292 26.362-27.588 42.301-27.588 42.301 19.618-38.623 14.694-47.826 12.15-55.407-1.86-5.547-5.129-10.68-9.465-16.68a264.393 264.393 0 00-16.124-20.154c-4.874-5.516-10.688-11.293-16.889-11.633-5.633-.309-9.006 1.327-11.77 3.931-5.817 5.481-8.933 15.257-24.726 20.245l12.387-25.601c-7.087 2.528-19.131 8.435-33.231-2.601 0 0 49.045-4.291 53.068-44.149-6.282-2.271-10.556-4.547-15.225-8.855-1.298-1.199-2.632-2.565-4.044-4.121 2.54 6.726 3.597 14.824-2.533 22.181-8.816 15.73-25.564 22.983-51.498 33.718 2.452 5.518 7.357 7.357 18.392 11.036-7.862 1.627-17.402 1.692-25.652-.646-9.916-5.279-16.983-15.448-18.696-27.015-1.595 4.79-1.471 9.88.974 15.808 1.88 4.555 5.024 9.008 8.254 13.11 7.234 9.189 31.417 32.945 41.251 42.884 0 0-12.938-.004-28.473-9.851 2.238 8.561 3.913 16.559 7.005 24.418 3.285 8.348 6.35 15.078 10.253 21.378 11.854 19.14 27.486 28.715 38.866 33.427 5.15 1.355 10.451 2.064 15.774 1.937 14.306-.342 17.268-4.485 34.434-13.681-13.076 21.604-37.226 34.768-71.363 23.065 4.09 6.827 10.197 12.461 17.423 15.813-5.496.752-11.099-.28-16.103-2.636.002.96-.005 1.923-.018 2.889-.217 15.955-3.212 55.85-5.194 82.249l-.139 1.847h65.753c4.907-44.357 13.415-102.214 13.415-102.214s-.106 65.721-.385 102.214h21.043c1.982-50.144 4.482-118.182 4.482-118.182s4.424 69.308 6.537 118.182h34.4c-.128-37.911-.547-63.745-.92-82.643l-.017-.872c-.255-13.074-.478-16.701-4.272-21.713l-9.42-12.448 15.596.658c9.785.416 17.563-11.566 21.328-18.744 11.039-21.044 17.432-45.759 19.392-75.119a8.405 8.405 0 01-.237-.099z" fill="#91928E"/><path d="M213.113 166.882c-2.785 4.668-5.848 8.425-9.361 11.509-4.675 4.104-10.239 6.383-15.066 8.072a126.086 126.086 0 01-11.634 3.45l18.791 14.289c2.152 1.636 4.377 3.328 6.365 3.877 2.13.588 5.092.176 7.958-.221 6.378-.884 13.606-1.887 18.434-5.471a19.156 19.156 0 002.044-1.773c-6.054-8.552-12.958-16.313-16.822-25.972-1.094-2.189-.967-4.867-.709-7.76" fill="#91928E"/><path d="M142.865 45.506c.867.039 1.665.036 2.424-.009 4.247-.257 9.099-2.027 14.235-3.9 3.072-1.121 6.246-2.28 9.649-3.267.992-.289 2.938-.854 5.414-.972-.148-.901-.32-1.387-.433-1.63-.856-.439-2.932-1.009-4.218-1.361l-19.128-5.249c-2.683-.736-6.02-1.651-7.658-1.399-.689.107-2.041.636-4.271 2.724a83.79 83.79 0 013.986 15.063m54.176 105.923c.291-.617.582-1.257.872-1.922 4.694-10.745 8.489-18.964 11.837-26.214 4.923-10.66 8.808-19.072 13.204-30.451 1.917-4.963 3.898-10.091 3.577-13.925-.311-3.725-2.097-7.456-4.9-10.237-1.471-1.459-2.77-2.802-3.916-3.986-4.631-4.787-6.336-6.549-11.435-8.424-.735.005-2.072.102-3.883.318-.217 2.95-.479 5.872-.78 8.739 2.169 6.951 3.009 14.405 2.562 22.706a29.99 29.99 0 01-.914 8.848l-.024.173a6.735 6.735 0 01-.579 1.889c-1.65 5.068-4.546 9.787-8.419 13.705-.3.304-.607.603-.924.903-1.211 6.548-4.218 16.799-8.318 28.277a222.838 222.838 0 0112.04 9.601M68.092 33.772c-.594.842-1.153 1.635-1.685 2.382a6.743 6.743 0 014.761 7.434 32.422 32.422 0 00-.208 7.447c10.865-7.753 24.614-11.022 41.824-9.908-3.423-9.991-8.826-16.877-10.663-18.444-3.934-1.465-21.702-2.21-28.922 4.138-.948 1.052-3.959 5.323-5.107 6.951" fill="#FFFFFE"/><path d="M207.078 271.506c22.071 1.226 26.976-27.588 30.04-45.367-12.742 4.054-24.392 14.121-38.047 12.119.93 7.806.549 16.322-1.122 25.665 1.695 4.137 4.589 7.28 9.129 7.583m-26.636-9.579c-.637-3.302-1.416-6.714-2.33-9.948-5.992 12.327-14.829 21.131-20.202 25.733 8.656-3.381 17.52-8.155 22.532-15.785" fill="#C7C6C1"/><path d="M112.035 69.68c-10.135-.168-20.401 2.64-30.131 12.805-13.127 21.834-28.375 35.907-40.65 47.235-10.289 9.495-16.72 15.677-19.011 21.735-3.376 12.764 17.638 12.272 22.373 5.407 24.522-35.557 31.266-50.884 41.688-58.854.04.018 18.392-17.779 48.433-4.292 3.065-1.838 0-22.07-22.702-24.036m31.897 165.655c-1.839-12.875-6.13-23.91-12.874-34.945-4.292-6.131-11.648-11.035-19.005-6.743-13.802 9.042-20.955 26.21-34.076 34.014-7.612 17.483 26.719 4.609 54.92 34.649 11.035-7.357 12.262-17.779 11.035-26.975" fill="#FFFFFE"/><path fill="#91928E" d="M164 282.75h19v120h-19zm-30 18h19v102h-19z"/><path d="M113.5 362.878c.201-1.34-.268-2.948-1.675-4.221-1.072-.938-2.345-1.742-3.819-2.546 2.412-1.072 5.025-2.278 6.566-3.484 1.675-1.273 2.48-3.149 2.48-4.422 0-.737-.403-1.072-1.073-.603-2.747 1.809-9.112 4.69-12.529 5.829-1.139.402-1.34.737-1.139 1.809.335 2.01.67 2.948 1.876 3.551 2.48 1.206 5.83 2.881 8.107 4.556.603.469 1.072.268 1.206-.469zm4.384 13.132c6.7-10.251 25.728-29.48 31.02-35.644 3.619-4.221 4.49-7.236 4.088-9.179-.201-1.005-.804-1.139-1.608-.402-7.705 7.437-29.614 31.356-33.634 38.86-1.474 2.747-1.675 4.824-1.14 6.231.336.804.939.67 1.274.134zm51.473-12.663c3.15-1.675 7.37-3.216 10.653-4.489 1.34-.536 2.01-1.407 2.948-3.417.536-1.072.402-1.608-.603-2.01-3.149-1.34-7.102-3.551-9.849-5.494-.603-.469-1.072-.335-1.206.536-.134 1.139.268 3.015 1.742 4.355.871.804 2.412 1.809 4.087 2.68-2.412.871-4.556 1.809-6.23 3.015-1.542 1.139-2.614 3.015-2.547 4.154.067.871.268 1.072 1.005.67z" fill="#000" fill-rule="nonzero"/></g></svg>